<?xml version="1.0" encoding="UTF-8"?>
<svg id="Layer_1" data-name="Layer 1" xmlns="http://www.w3.org/2000/svg" viewBox="67 145 913 210">
  <defs>
    <style>
      .cls-1 {
        fill: #265dfe;
      }
    </style>
  </defs>
  <polygon class="cls-1" points="187.54 263.74 140.64 263.74 140.63 263.74 140.64 263.76 131.47 312.9 126.1 312.9 116.51 301.51 134.92 199.46 150.02 186.62 208.55 186.62 218.33 198.49 216.96 206.2 145.54 206.2 168.86 241.09 210.76 241.09 210.76 241.09 257.75 241.09 257.78 241.09 312.66 241.09 289.34 206.2 263.96 206.2 267.95 183.68 236.34 145.55 129.64 145.55 91.58 178.13 67.17 316.03 98.78 354.45 206.05 354.45 243.26 323.03 245.99 307.6 191.9 307.6 184.92 312.9 178.41 312.9 181.06 298.63 200.54 298.63 247.58 298.63 307.48 298.63 284.15 263.74 187.54 263.74"/>
  <g>
    <path class="cls-1" d="M339.65,276.54l9.75-55.09,14.68-12.57h42.28l11.98,14.45-9.87,55.67-14.33,12.1h-42.52l-11.98-14.56ZM386.75,277.48l7.05-5.99,7.63-42.99-4.93-5.99h-25.25l-7.05,5.99-7.75,42.99,4.93,5.99h25.37Z"/>
    <path class="cls-1" d="M435.03,208.89h13.86l15.15,53.09h.23l33.71-53.09h15.74l-14.45,82.22h-15.39l8.81-50.04h-.23l-25.61,38.52h-9.87l-11.98-38.52h-.23l-8.81,50.04h-15.39l14.45-82.22Z"/>
    <path class="cls-1" d="M529.11,208.89h14.33l26.9,55.79h.23l9.75-55.79h15.39l-14.56,82.22h-14.33l-26.66-55.67h-.23l-9.87,55.67h-15.39l14.45-82.22Z"/>
    <path class="cls-1" d="M611.56,208.89h15.97l-14.56,82.22h-15.97l14.56-82.22Z"/>
    <path class="cls-1" d="M643.39,208.89h58.14l-2.35,13.51h-42.17l-3.99,22.79h36.53l-2.35,13.51h-36.53l-5.76,32.42h-15.97l14.45-82.22Z"/>
    <path class="cls-1" d="M711.04,208.89h15.97l-12.1,68.71h40.99l-2.35,13.51h-56.97l14.45-82.22Z"/>
    <path class="cls-1" d="M762.01,276.54l9.75-55.09,14.68-12.57h42.28l11.98,14.45-9.87,55.67-14.33,12.1h-42.52l-11.98-14.56ZM809.11,277.48l7.05-5.99,7.63-42.99-4.93-5.99h-25.25l-7.05,5.99-7.75,42.99,4.93,5.99h25.37Z"/>
    <path class="cls-1" d="M851.51,208.89h15.74l-.23,58.02h.47l26.54-58.02h11.98l5.76,58.02h.47l20.2-58.02h16.44l-31.48,82.22h-14.92l-6.22-57.79h-.47l-26.78,57.79h-14.92l-2.58-82.22Z"/>
  </g>
</svg>